<?xml version="1.0" standalone="no"?>
<!DOCTYPE svg PUBLIC "-//W3C//DTD SVG 20010904//EN"
 "http://www.w3.org/TR/2001/REC-SVG-20010904/DTD/svg10.dtd">
<svg version="1.0" xmlns="http://www.w3.org/2000/svg"
 width="309.000000pt" height="309.000000pt" viewBox="0 0 309.000000 309.000000"
 preserveAspectRatio="xMidYMid meet">
<metadata>
Created by potrace 1.11, written by Peter Selinger 2001-2013
</metadata>
<g transform="translate(0.000000,309.000000) scale(0.100000,-0.100000)"
fill="#000000" stroke="none">
<path d="M1315 3065 c-532 -84 -985 -440 -1188 -933 -230 -560 -110 -1203 308
-1641 312 -327 721 -495 1165 -478 162 6 270 24 410 69 550 176 954 641 1051
1209 18 106 20 150 16 304 -6 196 -18 268 -72 433 -78 234 -196 424 -375 602
-231 232 -507 376 -825 430 -136 23 -361 26 -490 5z"/>
</g>
</svg>
